<svg width="88" height="18" viewBox="0 0 88 18" fill="none" xmlns="http://www.w3.org/2000/svg">
<path d="M15.1172 13.7812L17.7422 0.9375H20.6836L16.7461 18H13.9102L10.6641 5.54297L7.34766 18H4.5L0.5625 0.9375H3.50391L6.15234 13.7578L9.41016 0.9375H11.8945L15.1172 13.7812ZM25.9805 18H23.0273V0.9375H25.9805V18ZM43.1602 18H40.1953L32.5898 5.89453V18H29.625V0.9375H32.5898L40.2188 13.0898V0.9375H43.1602V18Z" fill="#FBCD27"/>
<path d="M46.6641 18V0.9375H52.5117C54.4414 0.9375 55.9102 1.32422 56.918 2.09766C57.9258 2.87109 58.4297 4.02344 58.4297 5.55469C58.4297 6.33594 58.2188 7.03906 57.7969 7.66406C57.375 8.28906 56.7578 8.77344 55.9453 9.11719C56.8672 9.36719 57.5781 9.83984 58.0781 10.5352C58.5859 11.2227 58.8398 12.0508 58.8398 13.0195C58.8398 14.6211 58.3242 15.8516 57.293 16.7109C56.2695 17.5703 54.8008 18 52.8867 18H46.6641ZM49.6289 10.3008V15.6328H52.9219C53.8516 15.6328 54.5781 15.4023 55.1016 14.9414C55.625 14.4805 55.8867 13.8398 55.8867 13.0195C55.8867 11.2461 54.9805 10.3398 53.168 10.3008H49.6289ZM49.6289 8.12109H52.5352C53.457 8.12109 54.1758 7.91406 54.6914 7.5C55.2148 7.07812 55.4766 6.48438 55.4766 5.71875C55.4766 4.875 55.2344 4.26562 54.75 3.89062C54.2734 3.51562 53.5273 3.32812 52.5117 3.32812H49.6289V8.12109ZM71.7773 10.3828H64.7695V15.6328H72.9609V18H61.8047V0.9375H72.8789V3.32812H64.7695V8.03906H71.7773V10.3828ZM87.9375 3.32812H82.6172V18H79.6758V3.32812H74.4023V0.9375H87.9375V3.32812Z" fill="white"/>
</svg>
